# xmcd
#
# Track frame offsets:
#	150
#	12401
#	27100
#	38994
#	56570
#	74754
#	90361
#	105040
#	117960
#	133006
#
# Disc length: 1976 seconds
#
# Revision: 0
# Processed by: cddbd v1.4PL0 Copyright (c) Steve Scherf et al.
# Submitted via: dBpowerAMP V4.0
#
DISCID=7c07b60a
DTITLE=Joni Harms - Hometown Girl
DYEAR=1900
DGENRE=
TTITLE0=Tear it up
TTITLE1=If you were me
TTITLE2=You don't need to knock
TTITLE3=What kind of line does a woman use
TTITLE4=I used to be you
TTITLE5=The only thing bluer than his eyes
TTITLE6=You're the heart of it all
TTITLE7=I need a wife
TTITLE8=There's no heart so strong
TTITLE9=Hometown girl
EXTD=
EXTT0=
EXTT1=
EXTT2=
EXTT3=
EXTT4=
EXTT5=
EXTT6=
EXTT7=
EXTT8=
EXTT9=
PLAYORDER=
